<?xml version="1.0" encoding="UTF-8" standalone="no"?>
<!-- Created with Inkscape (http://www.inkscape.org/) -->

<svg
   xmlns:dc="http://purl.org/dc/elements/1.1/"
   xmlns:cc="http://creativecommons.org/ns#"
   xmlns:rdf="http://www.w3.org/1999/02/22-rdf-syntax-ns#"
   xmlns:svg="http://www.w3.org/2000/svg"
   xmlns="http://www.w3.org/2000/svg"
   xmlns:sodipodi="http://sodipodi.sourceforge.net/DTD/sodipodi-0.dtd"
   xmlns:inkscape="http://www.inkscape.org/namespaces/inkscape"
   width="100"
   height="100"
   viewBox="0 0 99.999997 99.999997"
   id="svg2"
   version="1.1"
   inkscape:version="0.91 r13725"
   shape-rendering="crispEdges"
   sodipodi:docname="hourglass.svg">
  <defs
     id="defs4" />
  <sodipodi:namedview
     id="base"
     pagecolor="#929292"
     bordercolor="#666666"
     borderopacity="1.0"
     inkscape:pageopacity="0.00784314"
     inkscape:pageshadow="2"
     inkscape:zoom="5.6"
     inkscape:cx="47.643975"
     inkscape:cy="37.804595"
     inkscape:document-units="px"
     inkscape:current-layer="layer1"
     showgrid="false"
     units="px"
     inkscape:window-width="1920"
     inkscape:window-height="1017"
     inkscape:window-x="1912"
     inkscape:window-y="-8"
     inkscape:window-maximized="1" />
  <metadata
     id="metadata7">
    <rdf:RDF>
      <cc:Work
         rdf:about="">
        <dc:format>image/svg+xml</dc:format>
        <dc:type
           rdf:resource="http://purl.org/dc/dcmitype/StillImage" />
        <dc:title></dc:title>
      </cc:Work>
    </rdf:RDF>
  </metadata>
  <g
     inkscape:label="Calque 1"
     inkscape:groupmode="layer"
     id="layer1"
     transform="translate(0,-952.36222)">
    <path
       style="fill:#ffffff;fill-opacity:1;stroke:#000000;stroke-width:2;stroke-linecap:round;stroke-linejoin:round;stroke-miterlimit:4;stroke-dasharray:none;stroke-opacity:1"
       d="m 14.26627,1045.9487 c 0,-4.2075 0.611385,-5.3528 2.857339,-5.3528 2.209077,0 3.049571,-1.4746 3.70467,-6.4997 0.700809,-5.3757 2.190298,-7.7109 8.612793,-13.5033 4.270996,-3.852 7.765436,-7.785 7.765436,-8.7399 0,-0.955 1.376415,-2.4731 3.058699,-3.3734 4.145245,-2.2185 4.145245,-10.01639 0,-12.23486 -1.682284,-0.90033 -3.085199,-2.8171 -3.11761,-4.25951 -0.03242,-1.44241 -2.243395,-3.99896 -4.913321,-5.68125 -6.309728,-3.97567 -11.850609,-12.30466 -11.850609,-17.81367 0,-3.34233 -0.714953,-4.36189 -3.058699,-4.36189 -2.476077,0 -3.058698,-1.01956 -3.058698,-5.35273 l 0,-5.35272 38.23373,0 38.23373,0 0,5.35272 c 0,4.33317 -0.582609,5.35273 -3.058698,5.35273 -2.343735,0 -3.058699,1.01956 -3.058699,4.36189 0,5.50901 -5.540868,13.838 -11.850597,17.81367 -2.669938,1.68229 -4.880924,4.23884 -4.913333,5.68125 -0.03242,1.44241 -1.435326,3.35918 -3.11761,4.25951 -1.990148,1.06511 -3.058698,3.20219 -3.058698,6.11746 0,2.9152 1.06855,5.0523 3.058698,6.1174 1.682284,0.9003 3.058699,2.9427 3.058699,4.5387 0,1.5961 1.334033,3.3252 2.964515,3.8427 5.046436,1.6017 12.239724,11.1678 13.27743,17.6575 0.731347,4.5734 1.680351,6.0774 3.835057,6.0774 2.252708,0 2.863236,1.1413 2.863236,5.3528 l 0,5.3527 -38.23373,0 -38.23373,0 0,-5.3527 z"
       id="path3347"
       inkscape:connector-curvature="0" />
  </g>
</svg>
