<?xml version="1.0" encoding="UTF-8" standalone="no"?>
<!-- Generator: Adobe Illustrator 19.0.0, SVG Export Plug-In . SVG Version: 6.00 Build 0)  -->

<svg
   xmlns:dc="http://purl.org/dc/elements/1.1/"
   xmlns:cc="http://creativecommons.org/ns#"
   xmlns:rdf="http://www.w3.org/1999/02/22-rdf-syntax-ns#"
   xmlns:svg="http://www.w3.org/2000/svg"
   xmlns="http://www.w3.org/2000/svg"
   xmlns:sodipodi="http://sodipodi.sourceforge.net/DTD/sodipodi-0.dtd"
   xmlns:inkscape="http://www.inkscape.org/namespaces/inkscape"
   version="1.1"
   id="Calque_1"
   x="0px"
   y="0px"
   viewBox="0 0 64 64"
   style="enable-background:new 0 0 64 64;"
   xml:space="preserve"
   inkscape:version="0.91 r13725"
   sodipodi:docname="Precision.svg"><metadata
     id="metadata27"><rdf:RDF><cc:Work
         rdf:about=""><dc:format>image/svg+xml</dc:format><dc:type
           rdf:resource="http://purl.org/dc/dcmitype/StillImage" /><dc:title></dc:title></cc:Work></rdf:RDF></metadata><defs
     id="defs25" /><sodipodi:namedview
     pagecolor="#a0a0a0"
     bordercolor="#666666"
     borderopacity="1"
     objecttolerance="10"
     gridtolerance="10"
     guidetolerance="10"
     inkscape:pageopacity="0"
     inkscape:pageshadow="2"
     inkscape:window-width="701"
     inkscape:window-height="480"
     id="namedview23"
     showgrid="false"
     inkscape:zoom="3.6875"
     inkscape:cx="32"
     inkscape:cy="32"
     inkscape:window-x="0"
     inkscape:window-y="0"
     inkscape:window-maximized="0"
     inkscape:current-layer="Calque_1" /><style
     type="text/css"
     id="style3">
	.st0{fill:#090A0A;}
</style><g
     id="Lock_64"><path
       id="XMLID_2420_"
       class="st0"
       d="M0,0" /><path
       id="XMLID_2441_"
       class="st0"
       d="M64,0" /><path
       id="XMLID_2442_"
       class="st0"
       d="M64,64" /><path
       id="XMLID_2447_"
       class="st0"
       d="M0,64" /></g><g
     id="Precision"
     style="fill:#ffffff;fill-opacity:1"><g
       id="XMLID_2586_"
       style="fill:#ffffff;fill-opacity:1"><g
         id="XMLID_2587_"
         style="fill:#ffffff;fill-opacity:1"><path
           id="XMLID_2591_"
           d="M47.6,37.1c-1.7,5-5.5,8.9-10.5,10.5v5.7c8.1-2,14.3-8.1,16.2-16.2H47.6z"
           style="fill:#ffffff;fill-opacity:1" /><path
           id="XMLID_2590_"
           d="M26.9,47.6c-5-1.7-8.9-5.5-10.5-10.5h-5.7c2,8.1,8.1,14.3,16.2,16.2V47.6z"
           style="fill:#ffffff;fill-opacity:1" /><path
           id="XMLID_2589_"
           d="M16.4,26.9c1.6-5,5.5-8.9,10.5-10.5v-5.7c-8.1,2-14.3,8.1-16.2,16.2H16.4z"
           style="fill:#ffffff;fill-opacity:1" /><path
           id="XMLID_2588_"
           d="M37.1,16.4c5,1.6,8.9,5.5,10.5,10.5h5.7c-2-8.1-8.1-14.3-16.2-16.2V16.4z"
           style="fill:#ffffff;fill-opacity:1" /></g></g><g
       id="XMLID_2583_"
       style="fill:#ffffff;fill-opacity:1"><rect
         id="XMLID_2585_"
         x="3.2"
         y="30"
         width="19.7"
         height="3.9"
         style="fill:#ffffff;fill-opacity:1" /><rect
         id="XMLID_2584_"
         x="41.1"
         y="30"
         width="19.7"
         height="3.9"
         style="fill:#ffffff;fill-opacity:1" /></g><g
       id="XMLID_2580_"
       style="fill:#ffffff;fill-opacity:1"><rect
         id="XMLID_2582_"
         x="30"
         y="3.2"
         width="3.9"
         height="19.7"
         style="fill:#ffffff;fill-opacity:1" /><rect
         id="XMLID_2581_"
         x="30"
         y="41.1"
         width="3.9"
         height="19.7"
         style="fill:#ffffff;fill-opacity:1" /></g></g></svg>